<!-- Thai-inspired kanok-style filigree flourishes -->
<svg xmlns="http://www.w3.org/2000/svg" style="display:none" aria-hidden="true">
  <symbol id="flourish-1" viewBox="0 0 120 24">
    <g fill="none" stroke="currentColor" stroke-width="1.2" stroke-linecap="round">
      <path d="M2 12 Q 16 12, 26 6 Q 36 0, 44 12 Q 52 24, 60 12 Q 68 0, 76 12 Q 84 24, 94 6 Q 104 12, 118 12"/>
      <circle cx="60" cy="12" r="2.5" fill="currentColor" stroke="none"/>
      <circle cx="30" cy="9" r="1.2" fill="currentColor" stroke="none"/>
      <circle cx="90" cy="15" r="1.2" fill="currentColor" stroke="none"/>
    </g>
  </symbol>
  <symbol id="flourish-2" viewBox="0 0 60 20">
    <g fill="none" stroke="currentColor" stroke-width="1" stroke-linecap="round">
      <path d="M4 10 Q 14 4, 20 10 Q 26 16, 30 10 Q 34 4, 40 10 Q 46 16, 56 10"/>
      <circle cx="30" cy="10" r="2" fill="currentColor" stroke="none"/>
    </g>
  </symbol>
  <symbol id="flourish-lotus" viewBox="0 0 80 40">
    <g fill="none" stroke="currentColor" stroke-width="1" stroke-linecap="round">
      <path d="M2 22 Q 18 22, 28 16 Q 36 8, 40 14 Q 44 8, 52 16 Q 62 22, 78 22"/>
      <!-- Lotus petals -->
      <path d="M40 14 Q 36 6, 40 2 Q 44 6, 40 14" fill="currentColor" opacity=".25"/>
      <path d="M40 14 Q 32 10, 30 4 Q 38 6, 40 14" fill="currentColor" opacity=".15"/>
      <path d="M40 14 Q 48 10, 50 4 Q 42 6, 40 14" fill="currentColor" opacity=".15"/>
      <circle cx="40" cy="14" r="1.6" fill="currentColor" stroke="none"/>
    </g>
  </symbol>
  <symbol id="corner-flourish" viewBox="0 0 40 40">
    <g fill="none" stroke="currentColor" stroke-width="1.2" stroke-linecap="round">
      <path d="M2 2 L 22 2 Q 30 2, 30 10 Q 30 18, 22 18 Q 14 18, 14 26 L 14 38"/>
      <circle cx="22" cy="10" r="1.5" fill="currentColor" stroke="none"/>
    </g>
  </symbol>
</svg>
